<?xml version="1.0" encoding="UTF-8"?>
<svg width="12px" height="12px" viewBox="0 0 12 12" version="1.1" xmlns="http://www.w3.org/2000/svg" xmlns:xlink="http://www.w3.org/1999/xlink">
    <!-- Generator: Sketch 52.6 (67491) - http://www.bohemiancoding.com/sketch -->
    <title>Group Copy 25备份 6</title>
    <desc>Created with Sketch.</desc>
    <g id="页面1" stroke="none" stroke-width="1" fill="none" fill-rule="evenodd">
        <g id="路址管理-添加下级房号（方案二）" transform="translate(-1332.000000, -358.000000)">
            <g id="Group-Copy-25备份-6" transform="translate(1330.000000, 356.000000)">
                <rect id="Rectangle" x="0" y="0" width="20" height="20"></rect>
                <path d="M8.887954,8 L13.8160987,12.9281447 C14.0613004,13.1733464 14.0613004,13.570897 13.8160987,13.8160987 C13.570897,14.0613004 13.1733464,14.0613004 12.9281447,13.8160987 L8,8.887954 L3.0718553,13.8160987 C2.82665357,14.0613004 2.42910302,14.0613004 2.18390129,13.8160987 C1.93869957,13.570897 1.93869957,13.1733464 2.18390129,12.9281447 L7.112046,8 L2.18390129,3.0718553 C1.93869957,2.82665357 1.93869957,2.42910302 2.18390129,2.18390129 C2.42910302,1.93869957 2.82665357,1.93869957 3.0718553,2.18390129 L8,7.112046 L12.9281447,2.18390129 C13.1733464,1.93869957 13.570897,1.93869957 13.8160987,2.18390129 C14.0613004,2.42910302 14.0613004,2.82665357 13.8160987,3.0718553 L8.887954,8 Z" id="Combined-Shape" fill="#595959"></path>
            </g>
        </g>
    </g>
</svg>
