<?xml version="1.0" encoding="UTF-8"?>
<svg width="14px" height="14px" viewBox="0 0 14 14" version="1.1" xmlns="http://www.w3.org/2000/svg" xmlns:xlink="http://www.w3.org/1999/xlink">
    <!-- Generator: Sketch 55.1 (78136) - https://sketchapp.com -->
    <title>旋转</title>
    <desc>Created with Sketch.</desc>
    <g id="物联监控" stroke="none" stroke-width="1" fill="none" fill-rule="evenodd">
        <g id="查看图片" transform="translate(-1251.000000, -309.000000)" fill-rule="nonzero">
            <g id="旋转" transform="translate(1250.000000, 308.000000)">
                <rect id="矩形" fill="#000000" opacity="0" x="0" y="0" width="16" height="16"></rect>
                <path d="M10.85,15 L3.05,15 C2.0578125,15 1.25,14.19375 1.25,13.2046875 L1.25,7.21875 C1.25,6.228125 2.0578125,5.4234375 3.05,5.4234375 L10.85,5.4234375 C11.8421875,5.4234375 12.65,6.2296875 12.65,7.21875 L12.65,13.2046875 C12.65,14.19375 11.8421875,15 10.85,15 Z M3.05,6.6203125 C2.71875,6.6203125 2.45,6.8890625 2.45,7.21875 L2.45,13.2046875 C2.45,13.534375 2.71875,13.803125 3.05,13.803125 L10.85,13.803125 C11.18125,13.803125 11.45,13.534375 11.45,13.2046875 L11.45,7.21875 C11.45,6.8890625 11.18125,6.6203125 10.85,6.6203125 L3.05,6.6203125 Z M14.15,7.0359375 C13.91875,7.0359375 13.6984375,6.9015625 13.6,6.6765625 C12.321875,3.7625 9.2609375,3.328125 7.55,3.328125 C7.21875,3.328125 6.95,3.059375 6.95,2.7296875 C6.95,2.4 7.21875,2.13125 7.55,2.13125 C10.959375,2.13125 13.565625,3.6140625 14.7,6.1984375 C14.8328125,6.5015625 14.69375,6.8546875 14.390625,6.9875 C14.3125,7.0203125 14.2296875,7.0359375 14.15,7.0359375 Z M7.4,4.459375 C7.246875,4.459375 7.0921875,4.4015625 6.975,4.284375 L5.8421875,3.153125 C5.6078125,2.91875 5.6078125,2.540625 5.8421875,2.30625 L6.975,1.175 C7.209375,0.940625 7.5890625,0.940625 7.8234375,1.175 C8.0578125,1.409375 8.0578125,1.7875 7.8234375,2.021875 L7.1140625,2.7296875 L7.8234375,3.4375 C8.0578125,3.671875 8.0578125,4.05 7.8234375,4.284375 C7.7078125,4.4 7.553125,4.459375 7.4,4.459375 Z" id="形状" fill="#0049FF"></path>
            </g>
        </g>
    </g>
</svg>