<?xml version="1.0" encoding="UTF-8"?>
<svg width="14px" height="14px" viewBox="0 0 14 14" version="1.1" xmlns="http://www.w3.org/2000/svg" xmlns:xlink="http://www.w3.org/1999/xlink">
    <!-- Generator: Sketch 55.1 (78136) - https://sketchapp.com -->
    <title>放大</title>
    <desc>Created with Sketch.</desc>
    <g id="物联监控" stroke="none" stroke-width="1" fill="none" fill-rule="evenodd">
        <g id="查看图片" transform="translate(-1166.000000, -310.000000)" fill-rule="nonzero">
            <g id="放大" transform="translate(1165.000000, 309.000000)">
                <rect id="矩形" fill="#000000" opacity="0" x="0" y="0" width="16" height="16"></rect>
                <path d="M14.746875,13.9453125 L11.6,10.8046875 C11.978125,10.3515625 12.2859375,9.846875 12.5171875,9.3 C12.8296875,8.5609375 12.9875,7.775 12.9875,6.965625 C12.9875,6.15625 12.8296875,5.371875 12.5171875,4.63125 C12.215625,3.9171875 11.7828125,3.2765625 11.234375,2.725 C10.684375,2.175 10.04375,1.7421875 9.3296875,1.440625 C8.590625,1.128125 7.80625,0.96875 6.996875,0.96875 C6.1875,0.96875 5.403125,1.128125 4.6640625,1.440625 C3.95,1.7421875 3.309375,2.175 2.759375,2.725 C2.209375,3.275 1.778125,3.9171875 1.4765625,4.63125 C1.1640625,5.3703125 1.00625,6.15625 1.00625,6.965625 C1.00625,7.775 1.1640625,8.559375 1.4765625,9.3 C1.778125,10.0140625 2.2109375,10.6546875 2.759375,11.20625 C3.309375,11.75625 3.95,12.1890625 4.6640625,12.490625 C5.403125,12.803125 6.1875,12.9625 6.996875,12.9625 C7.8046875,12.9625 8.590625,12.803125 9.3296875,12.490625 C9.8703125,12.2609375 10.3703125,11.9578125 10.81875,11.584375 L13.9671875,14.725 C14.075,14.8328125 14.215625,14.8859375 14.35625,14.8859375 C14.4984375,14.8859375 14.6390625,14.83125 14.746875,14.7234375 C14.9625,14.509375 14.9625,14.159375 14.746875,13.9453125 Z M10.4640625,10.415625 C10.4578125,10.421875 10.4515625,10.4265625 10.4453125,10.4328125 C10.440625,10.4375 10.4359375,10.4421875 10.4328125,10.446875 C9.5109375,11.3578125 8.2921875,11.859375 6.996875,11.859375 C5.6921875,11.859375 4.4640625,11.35 3.540625,10.4265625 C2.6171875,9.503125 2.109375,8.2734375 2.109375,6.9671875 C2.109375,5.6609375 2.6171875,4.43125 3.540625,3.5078125 C4.4640625,2.584375 5.690625,2.075 6.996875,2.075 C8.303125,2.075 9.5296875,2.584375 10.453125,3.5078125 C11.3765625,4.43125 11.884375,5.6609375 11.884375,6.9671875 C11.884375,8.26875 11.3796875,9.4921875 10.4640625,10.415625 L10.4640625,10.415625 Z M8.9640625,6.546875 L7.390625,6.546875 L7.390625,5.015625 C7.390625,4.7109375 7.1875,4.4640625 6.8828125,4.4640625 C6.578125,4.4640625 6.375,4.7109375 6.375,5.015625 L6.375,6.546875 L4.7703125,6.546875 C4.465625,6.546875 4.21875,6.75 4.21875,7.0546875 C4.21875,7.359375 4.465625,7.5625 4.7703125,7.5625 L6.375,7.5625 L6.375,9.209375 C6.375,9.5140625 6.578125,9.7609375 6.8828125,9.7609375 C7.1875,9.7609375 7.390625,9.5140625 7.390625,9.209375 L7.390625,7.5625 L8.9640625,7.5625 C9.26875,7.5625 9.515625,7.359375 9.515625,7.0546875 C9.515625,6.75 9.26875,6.546875 8.9640625,6.546875 Z" id="形状" fill="#595959"></path>
            </g>
        </g>
    </g>
</svg>